# xmcd
#
# Track frame offsets: 
#        150
#        17584
#        37668
#        54911
#        78848
#        101483
#        126203
#        145678
#        161632
#        181698
#        204012
#        222219
#        243495
#        263758
#        282215
#        298288
#        318289
#        336085
#        359727
#
# Disc length: 5033 seconds
#
# Revision: 0
# Processed by: cddbd v1.5.2PL0 Copyright (c) Steve Scherf et al.
# Submitted via: ExactAudioCopy v0.95b4
#
DISCID=0a13a713
DTITLE=NINA - NINA LIVE
DYEAR=2005
DGENRE=Pop
TTITLE0=Sweet Thing
TTITLE1=Love Moves In Mysterious Ways
TTITLE2=Stay(with me)
TTITLE3=Burn(feat. Christian Bautista)
TTITLE4=Through The Fire
TTITLE5=Fall For You
TTITLE6=Coloured Kisses(feat. Trapp of Dice and KD)
TTITLE7=Cool With You
TTITLE8=Constantly
TTITLE9=At Your Best
TTITLE10=Sunlight
TTITLE11=The Closer I Get To You(feat. Thor)
TTITLE12=Steep
TTITLE13=I Love You Goodbye
TTITLE14=I Can't Tell You Why
TTITLE15=Piano In The Dark
TTITLE16=Anything For You
TTITLE17=Time To Say Goodbye
TTITLE18=I Don't Want To Be Your Friend
EXTD=
EXTT0=
EXTT1=
EXTT2=
EXTT3=
EXTT4=
EXTT5=
EXTT6=
EXTT7=
EXTT8=
EXTT9=
EXTT10=
EXTT11=
EXTT12=
EXTT13=
EXTT14=
EXTT15=
EXTT16=
EXTT17=
EXTT18=
PLAYORDER=
